<svg xmlns="http://www.w3.org/2000/svg" width="256" height="256" viewBox="0 0 64 64" fill="none">
  <rect x="3" y="3" width="58" height="58" rx="12" stroke="#2B2B2B" stroke-width="2" fill="none"/>
  <line x1="16" y1="14" x2="16" y2="46" stroke="#2B2B2B" stroke-width="2"/>
  <line x1="22" y1="14" x2="22" y2="46" stroke="#2B2B2B" stroke-width="2"/>
  <line x1="28" y1="14" x2="28" y2="46" stroke="#2B2B2B" stroke-width="2"/>
  <rect x="13.2" y="22" width="5.6" height="6.4" rx="3.2" fill="#14B8A6" stroke="#2B2B2B" stroke-width="2"/>
  <rect x="19.2" y="32" width="5.6" height="6.4" rx="3.2" fill="#14B8A6" stroke="#2B2B2B" stroke-width="2"/>
  <rect x="25.2" y="18" width="5.6" height="6.4" rx="3.2" fill="#14B8A6" stroke="#2B2B2B" stroke-width="2"/>
  <path d="M41 46 C43 38,45 30,48 18" stroke="#2B2B2B" stroke-width="2" fill="none"/>
  <path d="M45 46 C47 37,50 28,54 18" stroke="#2B2B2B" stroke-width="2" fill="none"/>
  <circle cx="49" cy="22" r="2" fill="#D2A679"/>
  <circle cx="52" cy="25" r="2" fill="#D2A679"/>
  <circle cx="46" cy="28" r="2" fill="#D2A679"/>
  <circle cx="50" cy="31" r="2" fill="#D2A679"/>
  <text x="32" y="56" text-anchor="middle" font-size="7" fill="#2B2B2B" opacity=".5" font-family="Arial" font-weight="bold">CH</text>
</svg>